<svg width="32" height="32" viewBox="0 0 32 32" fill="none" xmlns="http://www.w3.org/2000/svg">
<path d="M7.20011 2.7998H24.8001C26.2668 2.7998 27.4668 3.9998 27.4668 5.46647V8.39981C27.4668 9.46647 26.8001 10.7998 26.1334 11.4665L20.4001 16.5331C19.6001 17.1998 19.0668 18.5331 19.0668 19.5998V25.3331C19.0668 26.1331 18.5334 27.1998 17.8668 27.5998L16.0001 28.7998C14.2668 29.8665 11.8668 28.6665 11.8668 26.5331V19.4665C11.8668 18.5331 11.3334 17.3331 10.8001 16.6665L5.73345 11.3331C5.06678 10.6665 4.53345 9.46647 4.53345 8.66647V5.5998C4.53345 3.9998 5.73345 2.7998 7.20011 2.7998Z" stroke="#6895D9" stroke-width="2" stroke-miterlimit="10" stroke-linecap="round" stroke-linejoin="round"/>
<path d="M14.5733 2.7998L8 13.3331" stroke="#6895D9" stroke-width="2" stroke-miterlimit="10" stroke-linecap="round" stroke-linejoin="round"/>
</svg>
